<svg version="1.1" xmlns="http://www.w3.org/2000/svg" xmlns:xlink="http://www.w3.org/1999/xlink" x="0px" y="0px" viewBox="0 0 492.7 521" style="enable-background:new 0 0 492.7 521;" xml:space="preserve">
<style type="text/css">
	.st0{opacity:0.2;fill:#001A5A;}
	.st1{fill:#37236A;}
	.st2{fill:#422F83;}
	.st3{opacity:0.5;}
	.st4{fill:#C34556;}
	.st5{fill:none;}
	.st6{opacity:0.6;fill:#C34556;}
	.st7{opacity:0.1;fill:#001A5A;}
	.st8{fill:#A1BC31;}
	.st9{opacity:0.5;fill:#6EA96E;}
	.st10{fill:#FFFFFF;}
	.st11{fill:#76A9DA;}
	.st12{opacity:0.2;}
	.st13{fill:#001A5A;}
	.st14{opacity:0.3;fill:#B9007C;}
	.st15{fill:#434142;}
	.st16{fill:#B9007C;}
	.st17{opacity:0.15;fill:#FFFFFF;}
</style>
<ellipse id="sompra_x5F_chao" class="st0 infinite flyShadow animated" ng-class="{'animated': dfAnimated}" cx="246.4" cy="488.3" rx="48.7" ry="11.2"></ellipse>
<g id="esfinge" class="infinite flyUpDown animated" ng-class="{'animated': dfAnimated}">
	<g id="chapeu_3_">
		<g id="chapeu_2_">
			<path id="chapeu_1_" class="st1" d="M343.5,440.7c-2.5,0-4.9-0.5-7-1.4c-2.2-0.9-4.1-2.3-5.8-3.9c-1.4-1.4-2.6-3.1-3.5-4.9
				c0,0,0,0,0,0c0-0.1-0.1-0.2-0.1-0.3c0-0.1-0.1-0.2-0.1-0.2c-0.1-0.2-0.2-0.4-0.3-0.6l-0.2-0.6l0-0.1c-0.1-0.1-0.1-0.3-0.2-0.5
				c-0.1-0.2-0.1-0.3-0.2-0.5l-0.3-1.2c-0.1-0.3-0.1-0.6-0.2-0.9c0-0.2-0.1-0.4-0.1-0.6c0-0.2,0-0.3-0.1-0.5c0-0.3-0.1-0.6-0.1-0.9
				l0-0.5l0-0.4v-88c-3.6,2.5-7.3,4.8-11.1,7c-1.3,0.7-2.6,1.4-3.8,2.1c-1,0.6-2.1,1.1-3.2,1.6c-5.5,2.7-11.3,5.1-17.2,7
				c-5,1.7-10.1,3-15.3,4.1c-2.6,0.5-5.1,1-7.8,1.4v0c-0.6,0.1-1.3,0.2-1.9,0.3c-0.7,0.1-1.4,0.2-2,0.3c-0.6,0.1-1.2,0.2-1.9,0.2
				c-0.7,0.1-1.4,0.1-2,0.2c-0.9,0.1-1.8,0.2-2.6,0.2h-0.1c-0.3,0-0.6,0-0.9,0.1c-1.3,0.1-2.6,0.1-3.8,0.2c-0.9,0-1.8,0.1-2.7,0.1
				c-0.9,0-1.8,0-2.7,0c-1.6,0-3.2,0-4.9-0.1c-1.6-0.1-3.2-0.1-4.8-0.3c-1-0.1-2.1-0.2-3.1-0.3c-0.4,0-0.8-0.1-1.1-0.1c0,0,0,0,0,0
				c-0.5,0-1-0.1-1.5-0.2h0c-0.5-0.1-1-0.1-1.5-0.2c-0.3,0-0.7-0.1-1-0.1c0,0-0.1,0-0.1,0c-0.1,0-0.3,0-0.4,0c0,0,0,0-0.1,0l-0.3,0
				c-0.2,0-0.5-0.1-0.7-0.1c-0.1,0-0.1,0-0.2,0c-0.3,0-0.5-0.1-0.8-0.1v0c-2.6-0.4-5.2-0.9-7.7-1.4c-5.2-1.1-10.3-2.4-15.3-4.1
				c-5.9-2-11.7-4.3-17.2-7c-6.3-3.1-12.4-6.7-18.2-10.6v88l0,0.4l0,0.5c0,0.3,0,0.6-0.1,0.9c0,0.2,0,0.3-0.1,0.5
				c0,0.2-0.1,0.4-0.1,0.6c0,0.3-0.1,0.6-0.2,0.9l-0.3,1.2c0,0.2-0.1,0.3-0.2,0.5c0,0.2-0.1,0.3-0.2,0.5l0,0.1l-0.2,0.6
				c-0.1,0.2-0.2,0.4-0.3,0.6c0,0.1-0.1,0.2-0.1,0.2c0,0.1-0.1,0.2-0.1,0.3c0,0,0,0,0,0c-0.9,1.8-2.1,3.5-3.5,4.9
				c-1.6,1.6-3.6,3-5.8,3.9c-2.2,0.9-4.5,1.4-7,1.4h0c-6,0-11.8-1-17.3-3c-4.1-1.4-8-3.4-11.7-5.8c0,0-0.1,0-0.1-0.1
				c0,0-0.1,0-0.1-0.1c-4.8-3.2-9-7.3-12.6-11.9c-0.6-0.8-1.2-1.7-1.8-2.6c-0.1-0.2-0.2-0.3-0.3-0.5c-0.5-0.7-0.9-1.4-1.4-2.2
				L91.6,393l-13.8-23.9L64,345.2l-13.8-23.9l-13.8-23.9l-13.8-23.9L8.8,249.6L7,246.4c-3.7-6.5-6-13.5-6.7-20.7
				c-0.8-8,0.2-16.2,3.1-23.9c0.1-0.4,0.3-0.8,0.4-1.1c0.3-0.8,0.6-1.5,1-2.3c0.2-0.4,0.4-0.8,0.5-1.1c0.3-0.5,0.5-1,0.8-1.5
				c0.3-0.5,0.6-1,0.9-1.5l9.4-16.3l13.8-23.9L44,130.2l5.2-8.9l3.9-6.8l4.7-8.1h0l1.4-2.5l8.1-14.1l0,0l4.2-7.3l10.8-18.8
				l10.1-17.6l11.6-20c1.1-1.8,2.2-3.6,3.5-5.2c0.6-0.8,1.2-1.6,1.9-2.4c1-1.1,2-2.3,3.1-3.3c4.3-4.3,9.3-7.7,14.7-10.3
				c1.4-0.6,2.7-1.2,4.2-1.7c1.4-0.5,2.8-1,4.3-1.4c1-0.3,2-0.5,2.9-0.7c0.1,0,0.2,0,0.3,0c0.4-0.1,0.8-0.2,1.2-0.2
				c3-0.5,6-0.8,9.1-0.8h194.2c3.1,0,6.2,0.3,9.1,0.8c0.4,0.1,0.9,0.1,1.3,0.2c0.1,0,0.2,0,0.2,0c1,0.2,2,0.4,2.9,0.7
				c1.5,0.4,2.9,0.9,4.3,1.4c1.4,0.5,2.8,1.1,4.2,1.7c5.4,2.5,10.4,6,14.7,10.3c1.1,1.1,2.1,2.2,3.1,3.3c0.6,0.8,1.3,1.6,1.9,2.4
				c1.3,1.7,2.4,3.4,3.5,5.2v0l21.7,37.6l15.1,26.1l14.3,24.7v0l36.3,62.9c0.1,0.1,0.1,0.2,0.2,0.3l9.6,16.6c0.3,0.6,0.7,1.2,1,1.9
				c0.4,0.7,0.8,1.5,1.1,2.3c0.2,0.4,0.4,0.8,0.5,1.2c0.3,0.8,0.7,1.5,0.9,2.3c2.3,6,3.4,12.2,3.4,18.5c0,1.8-0.1,3.6-0.3,5.4
				c0,0.2,0,0.3,0,0.5c0,0.1,0,0.2,0,0.3c-0.1,0.6-0.2,1.2-0.3,1.9c-0.2,1.3-0.5,2.6-0.8,3.9c-0.1,0.4-0.2,0.9-0.3,1.3
				c-0.1,0.4-0.2,0.8-0.3,1.3c-0.1,0.4-0.2,0.8-0.4,1.2c-0.1,0.4-0.3,0.8-0.4,1.2c-0.8,2.3-1.7,4.6-2.8,6.8
				c-0.1,0.2-0.2,0.3-0.3,0.5c-0.1,0.3-0.3,0.5-0.4,0.8c0,0.1-0.1,0.2-0.1,0.2c-0.2,0.3-0.3,0.7-0.5,1l-9.6,16.6
				c-0.1,0.1-0.1,0.2-0.2,0.3l-87.4,151.3c-0.4,0.7-0.9,1.4-1.3,2.2c-0.2,0.2-0.3,0.5-0.5,0.7c0,0-0.1,0.1-0.1,0.2
				c-0.3,0.5-0.7,1-1,1.5c-0.1,0.2-0.2,0.3-0.3,0.4c-0.1,0.1-0.1,0.2-0.2,0.3c-0.5,0.6-0.9,1.2-1.4,1.8c-0.5,0.6-1,1.1-1.4,1.7
				c-0.5,0.6-1,1.1-1.5,1.6c-0.6,0.6-1.1,1.1-1.7,1.7c-0.4,0.4-0.9,0.8-1.3,1.2c-1.1,0.9-2.2,1.8-3.3,2.6c-0.2,0.2-0.5,0.4-0.7,0.5
				c-0.5,0.3-1,0.7-1.4,1c-0.1,0-0.1,0.1-0.2,0.1c-0.9,0.6-1.8,1.2-2.7,1.7c-0.9,0.5-1.9,1-2.8,1.5c-1,0.5-1.9,0.9-2.9,1.3
				c-0.5,0.2-1,0.4-1.5,0.6c-0.5,0.2-1,0.4-1.5,0.6c0,0,0,0,0,0C355.3,439.7,349.4,440.7,343.5,440.7L343.5,440.7z"></path>
			<path id="chapeu" class="st2" d="M388.7,26.1L388.7,26.1c-1.1-1.8-2.2-3.6-3.5-5.2c-0.6-0.8-1.2-1.6-1.9-2.4
				c-1-1.2-2-2.3-3.1-3.3c-4.3-4.3-9.3-7.7-14.7-10.3c-1.4-0.6-2.7-1.2-4.2-1.7c-1.4-0.5-2.8-1-4.3-1.4c-1-0.3-2-0.5-2.9-0.7
				c-0.5-0.1-1-0.2-1.5-0.3c-3-0.5-6-0.8-9.1-0.8H149.3c-3.1,0-6.2,0.3-9.1,0.8c-0.5,0.1-1,0.2-1.5,0.3c-1,0.2-2,0.4-2.9,0.7
				c-1.5,0.4-2.9,0.8-4.3,1.4c-1.4,0.5-2.8,1.1-4.2,1.7c-5.4,2.5-10.4,6-14.7,10.3c-1.1,1.1-2.1,2.2-3.1,3.3
				c-0.6,0.8-1.3,1.6-1.9,2.4c-1.3,1.7-2.4,3.4-3.5,5.2l-11.6,20L82.4,63.7l18.2,31.5c4.7,8.1,7,17.1,7,26.1h20.3h257.4v0
				c0-9,2.3-18,7-26.1l18.2-31.5l0,0L388.7,26.1z"></path>
		</g>
		<g id="listras" class="st3">
			<rect x="234.4" class="st4" width="23.9" height="121.3"></rect>
			<rect x="282.2" class="st4" width="23.9" height="121.3"></rect>
			<rect x="330" class="st4" width="23.9" height="121.3"></rect>
			<rect x="186.7" class="st4" width="23.9" height="121.3"></rect>
			<rect x="138.9" class="st4" width="23.9" height="121.3"></rect>
			<polygon class="st4" points="167.4,369.1 167.4,393 91.6,393 77.8,369.1 			"></polygon>
			<polygon class="st4" points="415,369.1 401.2,393 325.4,393 325.4,369.1 			"></polygon>
			<path class="st4" d="M167.4,334.6v10.6H64l-13.8-23.9H151C156.1,326.1,161.6,330.6,167.4,334.6z"></path>
			<path class="st4" d="M442.6,321.3l-13.8,23.9H325.4v-10.6c5.8-4,11.2-8.4,16.3-13.2H442.6z"></path>
			<path class="st4" d="M119,275.8c-2.6,0.6-5.2,1-8,1h-0.1c-5.2,0-10.2-1.1-14.6-3.2H22.6l13.8,23.9h94.5
				C126.3,290.6,122.3,283.4,119,275.8z"></path>
			<path class="st4" d="M381.9,276.8h-0.1c-2.8,0-5.4-0.3-8-1c0.2-0.4,0.3-0.8,0.5-1.1c-0.2,0.4-0.3,0.8-0.5,1.1
				c-3.3,7.6-7.3,14.8-11.8,21.6h94.5l13.8-23.9h-73.7C392,275.6,387.1,276.8,381.9,276.8z"></path>
			<path class="st4" d="M76.2,242.1c0-5.9,1.5-11.5,4.1-16.3H0.3c0.7,7.2,3,14.2,6.7,20.7l1.8,3.2h68.2
				C76.5,247.2,76.2,244.7,76.2,242.1z"></path>
			<path class="st4" d="M412.4,225.7c2.6,4.9,4.1,10.4,4.1,16.3c0,2.6-0.3,5.1-0.8,7.6h68.2l1.8-3.2c3.7-6.5,6-13.5,6.7-20.7H412.4z
				"></path>
			<path class="st4" d="M107.5,178H16.4L7,194.3c-1.4,2.5-2.6,5-3.6,7.6h104.2V178z"></path>
			<path class="st4" d="M485.8,194.3l-9.4-16.3h-91.1v23.4h0v0.5h104.2C488.4,199.3,487.2,196.7,485.8,194.3z"></path>
			<polygon class="st4" points="107.5,130.2 44,130.2 30.2,154.1 107.5,154.1 			"></polygon>
			<polygon class="st4" points="448.8,130.2 385.2,130.2 385.2,154.1 462.6,154.1 			"></polygon>
			<path class="st4" d="M100.6,95.2l-7.4-12.7H71.5l-4.2,7.3v0l-8.1,14.1l-1.5,2.5h47.6C104.2,102.5,102.6,98.7,100.6,95.2z"></path>
			<path class="st4" d="M425.4,89.7l-4.2-7.3h-21.7l-7.4,12.7c-2.1,3.6-3.7,7.3-4.8,11.2H435L425.4,89.7z"></path>
			<path class="st4" d="M167.4,416.8v5.7l0,0.4l0,0.5c0,0.3,0,0.6-0.1,0.9c0,0.2,0,0.3-0.1,0.5c0,0.2-0.1,0.4-0.1,0.6
				c0,0.3-0.1,0.6-0.2,0.9l-0.3,1.2c0,0.2-0.1,0.3-0.2,0.5c0,0.2-0.1,0.3-0.2,0.5l0,0.1l-0.2,0.6c-0.1,0.2-0.2,0.4-0.3,0.6
				c0,0.1-0.1,0.2-0.1,0.2c0,0.1-0.1,0.2-0.1,0.3c0,0,0,0,0,0c-0.9,1.8-2.1,3.5-3.5,4.9c-1.6,1.6-3.6,3-5.8,3.9
				c-2.2,0.9-4.5,1.4-7,1.4h0c-6,0-11.8-1-17.3-3c0,0,0,0,0,0c-4.1-1.4-8-3.4-11.7-5.8c-0.1,0-0.1-0.1-0.2-0.1l0,0
				c-4.8-3.2-9.1-7.3-12.6-11.9c-0.6-0.8-1.2-1.7-1.8-2.6c-0.1-0.2-0.2-0.3-0.3-0.5H167.4z"></path>
			<path class="st4" d="M325.4,416.8v5.7l0,0.4l0,0.5c0,0.3,0,0.6,0.1,0.9c0,0.2,0,0.3,0.1,0.5c0,0.2,0.1,0.4,0.1,0.6
				c0,0.3,0.1,0.6,0.2,0.9l0.3,1.2c0,0.2,0.1,0.3,0.2,0.5c0,0.2,0.1,0.3,0.2,0.5l0,0.1l0.2,0.6c0.1,0.2,0.2,0.4,0.3,0.6
				c0,0.1,0.1,0.2,0.1,0.2c0,0.1,0.1,0.2,0.1,0.3c0,0,0,0,0,0c0.9,1.8,2.1,3.5,3.5,4.9c1.6,1.6,3.6,3,5.8,3.9c2.2,0.9,4.5,1.4,7,1.4
				h0c6,0,11.8-1,17.3-3c0,0,0,0,0,0c4.1-1.4,8-3.4,11.7-5.8c0.1,0,0.1-0.1,0.2-0.1l0,0c4.8-3.2,9.1-7.3,12.6-11.9
				c0.6-0.8,1.2-1.7,1.8-2.6c0.1-0.2,0.2-0.3,0.3-0.5H325.4z"></path>
			<line class="st5" x1="307.2" y1="416.8" x2="307.2" y2="416.8"></line>
			<path class="st6" d="M127.8,121.3h-20.3c0-9-2.3-18-7-26.1L82.4,63.7l10.1-17.6l18.6,32.2c0.1,0.1,0.1,0.2,0.2,0.3l9.6,16.6
				C125.5,103.2,127.8,112.2,127.8,121.3z"></path>
			<path class="st6" d="M364.9,121.3h20.3c0-9,2.3-18,7-26.1l18.2-31.5l-10.1-17.6l-18.6,32.2c-0.1,0.1-0.1,0.2-0.2,0.3l-9.6,16.6
				C367.2,103.2,364.9,112.2,364.9,121.3z"></path>
		</g>
		<g id="faixa_1_">
			<rect id="faixa" x="107.6" y="121.3" class="st4" width="277.7" height="80.1"></rect>
			<rect id="sombra" x="107.6" y="121.3" class="st7" width="20.3" height="80.1"></rect>
		</g>
		<g id="nota">
			<path class="st8" d="M265.6,90.2l-20.7,5.2c-1.5,0.4-2.7,1.9-2.7,3.5v6.5v5.5v15.9c-1.4-0.5-2.9-0.8-4.4-0.8
				c-7.3,0-13.2,5.9-13.2,13.2s5.9,13.2,13.2,13.2c7.3,0,13.2-5.9,13.2-13.2v-27.8c1-0.2,2-0.5,2.7-0.7l12-3
				c1.5-0.4,2.7-1.9,2.7-3.5v-12C268.3,90.8,267,89.8,265.6,90.2z"></path>
			<path class="st9" d="M268.3,92.3v2.4l-19.7,4.9c-1.5,0.4-2.7,1.9-2.7,3.5v28c-1.4-0.5-2.9-0.8-4.4-0.8c-7.3,0-13.2,5.9-13.2,13.2
				c0,2.3,0.6,4.5,1.7,6.4c-3.3-2.4-5.4-6.3-5.4-10.7c0-7.3,5.9-13.2,13.2-13.2c1.5,0,3,0.3,4.4,0.8v-28c0-1.5,1.2-3.1,2.7-3.5
				l20.7-5.2C267,89.8,268.3,90.8,268.3,92.3z"></path>
		</g>
	</g>
	<g id="asa_x5F_dir_1_" class="infinite rotateInUpLeft animated" ng-class="{'animated': dfAnimated}">
		<path id="asa_x5F_dir" class="st10" d="M412.1,360.1c-1.5,2.1-3.4,3.9-5.7,5.4c-9.7,6.3-22.7,3.6-29-6.2c2,3,1.8,6.8-0.1,9.7
			c-0.6,1-1.5,1.8-2.5,2.5c-4,2.6-9.4,1.5-12.1-2.5c0,0,0-0.1-0.1-0.1c0,0,0,0.1,0,0.1c2.4,3.8,1.3,8.8-2.5,11.3
			c-3.5,2.3-8,1.6-10.6-1.4c0,0,0,0,0,0c-5.6-6.4-14-10.2-23.2-9.8c-0.3,0-0.7,0-1.1,0.1c-0.7,0-1.3,0.1-2,0.2
			c-4.2,0.6-8.1,2.2-11.5,4.4v0c0.1-1,0.2-2,0.3-3c0.2-2,0.3-4,0.3-6c0-1.4,0-2.9-0.1-4.3c-0.1-0.9-0.1-1.8-0.2-2.6
			c0.1-0.7,0.2-1.4,0.4-2.1c1.2-6,3.3-11.8,6.4-17.1l0,0c3.8-6.6,9.1-12.4,15.6-17.1c0,0,0,0,0,0c0.6-0.5,1.2-0.9,1.9-1.3
			c0.3-0.2,0.6-0.4,0.9-0.5c3.5-2.2,7.3-4,11.1-5.3c0,0,0,0,0,0c6.1-2.1,12.5-3.1,18.8-3c10.9,0.1,21.6,3.5,30.7,9.8
			c5.7,3.9,10.8,9,14.8,15.2c1.8,2.7,2.8,5.7,3.2,8.7C416.5,350.4,415.2,355.8,412.1,360.1z"></path>
		<path id="sombra_x5F_dir_2_" class="st0" d="M412.1,360.1c-0.5-2.7-1.5-5.4-3.1-7.8c-1.7-2.6-3.5-5-5.5-7.2
			c-13.1-14.4-32.8-20.6-51.5-16.8c-6.6,1.3-13.1,3.9-19.2,7.8c-2.7,1.8-5.2,3.7-7.5,5.9c-4,3.7-7.3,7.8-9.9,12.4
			c-1.2,2-2.2,4.1-3.1,6.2c-0.1-0.9-0.1-1.8-0.2-2.6c0.1-0.7,0.2-1.4,0.4-2.1c1.2-6,3.3-11.8,6.4-17.1l0,0
			c3.8-6.6,9.1-12.4,15.6-17.1c0,0,0,0,0,0c0.6-0.5,1.2-0.9,1.9-1.3c0.3-0.2,0.6-0.4,0.9-0.5c3.5-2.2,7.3-4,11.1-5.3c0,0,0,0,0,0
			c6.1-2.1,12.5-3.1,18.8-3c10.9,0.1,21.6,3.5,30.7,9.8c5.7,3.9,10.8,9,14.8,15.2c1.8,2.7,2.8,5.7,3.2,8.7
			C416.5,350.4,415.2,355.8,412.1,360.1z"></path>
		<path id="sombra_x5F_chapeu_x5F_dir" class="st0" d="M416.2,363.1c-1.6,2.3-3.7,4.4-6.1,6c-0.3,0.3-0.6,0.5-1,0.7
			c-5.8,3.8-12.8,5.1-19.6,3.7c-2.6-0.6-5.1-1.5-7.3-2.8c-0.2,0.4-0.5,0.8-0.7,1.2c-1,1.5-2.4,2.9-4,3.9c-2.8,1.8-6.1,2.5-9.3,2.1
			c-0.9,2.7-2.7,5.1-5.3,6.7c-2.2,1.4-4.7,2.1-7.2,2.1c-3.4,0-6.7-1.3-9.2-3.7l-0.1-0.1l-0.7-0.7c-4.8-5.5-11.8-8.4-19.1-8.1
			c-0.3,0-0.6,0-0.8,0.1c-0.2,0-0.3,0-0.5,0v-5c0.3,0,0.7-0.1,1-0.1c9.2-0.4,17.6,3.4,23.2,9.8c0,0,0,0,0,0c0.2,0.2,0.4,0.4,0.6,0.6
			c0.6,0.6,1.4,1.1,2.2,1.4c1.4,0.6,2.9,0.8,4.5,0.6c0.8-0.1,1.5-0.3,2.2-0.7c0.4-0.1,0.7-0.3,1.1-0.6c0.6-0.4,1.1-0.9,1.6-1.4
			c2.5-2.7,2.9-6.7,0.9-10c0.4,0.6,0.9,1.2,1.4,1.7c2.9,2.6,7.2,3.1,10.7,0.8c1-0.7,1.9-1.5,2.5-2.5c1.9-2.8,2-6.6,0.1-9.7
			c6.3,9.7,19.3,12.5,29.1,6.1c2.3-1.5,4.2-3.3,5.7-5.4c3.1-4.4,4.4-9.7,3.7-15v0c-0.4-3-1.4-5.9-3.2-8.6c-4-6.2-9.1-11.3-14.7-15.2
			c-9.1-6.3-19.8-9.7-30.7-9.8h0c-6.3-0.1-12.6,0.9-18.8,3.1c0.5-0.5,0.9-1,1.4-1.5c0,0,0.1-0.1,0.1-0.1c1.5-1.7,2.9-3.4,4.3-5.1
			c0.1,0,0.1-0.1,0.1-0.1c4.2-0.9,8.5-1.3,12.9-1.2c1.2,0,2.3,0.1,3.5,0.2c10.8,0.7,21.1,4.4,29.9,10.6c1.8,1.3,3.6,2.6,5.3,4.1
			c4.2,3.6,7.8,7.8,10.8,12.5c2.1,3.3,3.5,6.9,4,10.7v0c0,0.2,0.1,0.4,0.1,0.7C421.6,351.5,419.9,357.8,416.2,363.1z"></path>
	</g>
	<g id="asa_x5F_esq_1_" class="infinite rotateInUpRight animated" ng-class="{'animated': dfAnimated}">
		<path id="asa_x5F_esq" class="st10" d="M80.7,360.1c1.5,2.1,3.4,3.9,5.7,5.4c9.7,6.3,22.7,3.6,29-6.2c-2,3-1.8,6.8,0.1,9.7
			c0.6,1,1.5,1.8,2.5,2.5c4,2.6,9.4,1.5,12.1-2.5c0,0,0-0.1,0.1-0.1c0,0,0,0.1,0,0.1c-2.4,3.8-1.3,8.8,2.5,11.3
			c3.5,2.3,8,1.6,10.6-1.4c0,0,0,0,0,0c5.6-6.4,14-10.2,23.2-9.8c0.3,0,0.7,0,1.1,0.1c0.7,0,1.3,0.1,2,0.2c4.2,0.6,8.1,2.2,11.5,4.4
			v0c-0.1-1-0.2-2-0.3-3c-0.2-2-0.3-4-0.3-6c0-1.4,0-2.9,0.1-4.3c0.1-0.9,0.1-1.8,0.2-2.6c-0.1-0.7-0.2-1.4-0.4-2.1
			c-1.2-6-3.3-11.8-6.4-17.1c0,0,0,0,0,0c-3.8-6.6-9.1-12.4-15.6-17.1l0,0c-0.6-0.5-1.2-0.9-1.9-1.3c-0.3-0.2-0.6-0.4-0.9-0.5
			c-3.5-2.2-7.3-4-11.1-5.3c0,0,0,0,0,0c-6.1-2.1-12.5-3.1-18.8-3c-10.9,0.1-21.6,3.5-30.7,9.8c-5.7,3.9-10.8,9-14.8,15.2
			c-1.8,2.7-2.8,5.7-3.2,8.7C76.3,350.4,77.6,355.8,80.7,360.1z"></path>
		<path id="sombra_x5F_esq_4_" class="st0" d="M80.7,360.1c0.5-2.7,1.5-5.4,3.1-7.8c1.7-2.6,3.5-5,5.5-7.2
			c13.1-14.4,32.8-20.6,51.5-16.8c6.6,1.3,13.1,3.9,19.2,7.8c2.7,1.8,5.2,3.7,7.5,5.9c4,3.7,7.3,7.8,9.9,12.4c1.2,2,2.2,4.1,3.1,6.2
			c0.1-0.9,0.1-1.8,0.2-2.6c-0.1-0.7-0.2-1.4-0.4-2.1c-1.2-6-3.3-11.8-6.4-17.1c0,0,0,0,0,0c-3.8-6.6-9.1-12.4-15.6-17.1l0,0
			c-0.6-0.5-1.2-0.9-1.9-1.3c-0.3-0.2-0.6-0.4-0.9-0.5c-3.5-2.2-7.3-4-11.1-5.3c0,0,0,0,0,0c-6.1-2.1-12.5-3.1-18.8-3
			c-10.9,0.1-21.6,3.5-30.7,9.8c-5.7,3.9-10.8,9-14.8,15.2c-1.8,2.7-2.8,5.7-3.2,8.7C76.3,350.4,77.6,355.8,80.7,360.1z"></path>
		<path id="sombra_x5F_chapeu_x5F_esq" class="st0" d="M76.6,363.1c1.6,2.3,3.7,4.4,6.1,6c0.3,0.3,0.6,0.5,1,0.7
			c5.8,3.8,12.8,5.1,19.6,3.7c2.6-0.6,5.1-1.5,7.3-2.8c0.2,0.4,0.5,0.8,0.7,1.2c1,1.5,2.4,2.9,4,3.9c2.8,1.8,6.1,2.5,9.3,2.1
			c0.9,2.7,2.7,5.1,5.3,6.7c2.2,1.4,4.7,2.1,7.2,2.1c3.4,0,6.7-1.3,9.2-3.7l0.1-0.1l0.7-0.7c4.8-5.5,11.8-8.4,19.1-8.1
			c0.3,0,0.6,0,0.8,0.1c0.2,0,0.3,0,0.5,0v-5c-0.3,0-0.7-0.1-1-0.1c-9.2-0.4-17.6,3.4-23.2,9.8c0,0,0,0,0,0
			c-0.2,0.2-0.4,0.4-0.6,0.6c-0.6,0.6-1.4,1.1-2.2,1.4c-1.4,0.6-2.9,0.8-4.5,0.6c-0.8-0.1-1.5-0.3-2.2-0.7c-0.4-0.1-0.7-0.3-1.1-0.6
			c-0.6-0.4-1.1-0.9-1.6-1.4c-2.5-2.7-2.9-6.7-0.9-10c-0.4,0.6-0.9,1.2-1.4,1.7c-2.9,2.6-7.2,3.1-10.7,0.8c-1-0.7-1.9-1.5-2.5-2.5
			c-1.9-2.8-2-6.6-0.1-9.7c-6.3,9.7-19.3,12.5-29.1,6.1c-2.3-1.5-4.2-3.3-5.7-5.4c-3.1-4.4-4.4-9.7-3.7-15v0c0.4-3,1.4-5.9,3.2-8.6
			c4-6.2,9.1-11.3,14.7-15.2c9.1-6.3,19.8-9.7,30.7-9.8h0c6.3-0.1,12.6,0.9,18.8,3.1c-0.5-0.5-0.9-1-1.4-1.5c0,0-0.1-0.1-0.1-0.1
			c-1.5-1.7-2.9-3.4-4.3-5.1c-0.1,0-0.1-0.1-0.1-0.1c-4.2-0.9-8.5-1.3-12.9-1.2c-1.2,0-2.3,0.1-3.5,0.2
			c-10.8,0.7-21.1,4.4-29.9,10.6c-1.8,1.3-3.6,2.6-5.3,4.1c-4.2,3.6-7.8,7.8-10.8,12.5c-2.1,3.3-3.5,6.9-4,10.7v0
			c0,0.2-0.1,0.4-0.1,0.7C71.2,351.5,72.9,357.8,76.6,363.1z"></path>
	</g>
	<g id="corpo">
		<g id="pes_x5F_tras">
			<path id="pe_x5F_dir" class="st11" d="M237.7,408.5c0.1,0,0.1,0,0.2-0.1c-4.6,2.8-7.7,8-7.7,13.8c0,3.3-2.8,6.1-6.1,6.1
				c-0.4,0-0.8,0-1.2-0.1c0.1-1.6,0.5-3.2,0.9-4.7v0C225.9,416.6,231.1,411.1,237.7,408.5z"></path>
			<path id="pe_x5F_esq" class="st11" d="M270,428.2c-0.4,0.1-0.8,0.1-1.2,0.1c-3.3,0-6.1-2.7-6.1-6.1c0-5.9-3.1-11.1-7.8-13.9
				c0.1,0,0.1,0,0.2,0.1c6.5,2.5,11.5,7.8,13.7,14.3c0.1,0.2,0.2,0.4,0.2,0.6v0C269.5,424.9,269.8,426.5,270,428.2z"></path>
		</g>
		<g id="sombra_x5F_pes" class="st12">
			<path id="sombra_x5F_esq" class="st13" d="M237.7,408.5c0.1,0,0.1,0,0.2-0.1c-4.6,2.8-7.7,8-7.7,13.8c0,3.4-2.7,6.1-6.1,6.1
				c-0.4,0-0.8,0-1.2-0.1c0.1-1.6,0.5-3.2,0.9-4.7v0C226,416.6,231.1,411.1,237.7,408.5z"></path>
			<path id="sombra_x5F_dir" class="st13" d="M270,428.2c-0.4,0.1-0.8,0.1-1.2,0.1c-3.3,0-6.1-2.7-6.1-6.1c0-5.9-3.1-11.1-7.8-13.9
				c0.1,0,0.1,0,0.2,0.1c6.5,2.5,11.5,7.8,13.7,14.3c0.1,0.2,0.2,0.4,0.2,0.6v0C269.5,424.9,269.8,426.5,270,428.2z"></path>
		</g>
		<path id="corpo_x5F_frente" class="st11" d="M312.4,364.9c0,1.9-0.1,3.9-0.2,6c-0.1,1-0.2,2-0.3,3c-1.7,14.1-7.1,29.8-15.1,43.4
			l-10.1,17.3l-0.3,0.5c-0.7,1.1-1.7,2.1-2.8,2.8c-1.4,0.9-3,1.4-4.7,1.4c-2.8,0-5.3-1.3-6.9-3.4c-1.2-1.5-1.9-3.4-1.9-5.4
			c0-0.2,0-0.4,0-0.6c0-0.5,0-1.1-0.1-1.6v0c-0.2-1.6-0.5-3.2-1-4.7v0c-0.1-0.2-0.1-0.4-0.2-0.6c-2.2-6.5-7.3-11.8-13.7-14.3
			c-0.1,0-0.1,0-0.2-0.1c-0.2-0.1-0.3-0.1-0.5-0.2c-2.5-0.9-5.1-1.3-7.9-1.3c-2.8,0-5.5,0.5-7.9,1.4h0c-0.2,0.1-0.4,0.2-0.6,0.2
			c-0.1,0-0.1,0-0.2,0.1c-6.6,2.6-11.7,8.1-13.9,14.9v0c-0.5,1.5-0.8,3.1-0.9,4.7v0c-0.1,0.5-0.1,1.1-0.1,1.6v0.6
			c0,2-0.7,3.9-1.9,5.4c-1.4,1.8-3.5,3.1-5.9,3.4c-0.3,0.1-0.7,0.1-1,0.1c-2,0-3.8-0.7-5.3-1.8c-0.3-0.2-0.6-0.5-0.8-0.7
			c-0.5-0.5-1-1.1-1.4-1.7l-10.9-18.7c-1-1.8-2-3.6-3-5.5c-6.6-13-10.9-27.3-11.9-40c-0.2-2-0.3-4-0.3-5.9c0-2.1,0.1-4.3,0.3-6.4
			c0-0.5,0.1-1.1,0.2-1.6c0-0.1,0-0.3,0.1-0.4c0-0.1,0-0.2,0-0.3c0.1-1,0.3-2,0.5-3.1c0.5-3.1,1.3-6,2.2-8.9c0,0,0,0,0,0
			c1.1-3.4,2.5-6.6,4.1-9.7c11-21.2,33.2-35.7,58.7-35.7c22,0,41.5,10.7,53.5,27.3c4,5.4,7.1,11.5,9.3,18.1c0,0,0,0,0,0
			c1.3,3.8,2.2,7.8,2.7,11.9c0,0.1,0,0.2,0.1,0.3c0.1,0.5,0.1,1,0.2,1.5c0.1,0.9,0.2,1.7,0.2,2.6C312.4,362,312.4,363.4,312.4,364.9
			z"></path>
		<path id="sobra_x5F_corpo" class="st7" d="M214.9,439.2c-0.3,0-0.7,0.1-1,0.1c-3.2,0-6-1.7-7.5-4.2l-10.9-18.7
			c-8.3-14.4-13.7-30.9-14.9-45.5c-0.2-2-0.3-4-0.3-5.9c0-2.1,0.1-4.3,0.3-6.4c0-0.6,0.1-1.1,0.2-1.6c0-0.1,0-0.3,0-0.4
			c0-0.1,0-0.2,0-0.3c0.5-4.1,1.5-8.1,2.7-11.9c0,0,0,0,0,0c0.6,0.3,1.3,0.6,1.9,1c5.1,2.5,10.3,4.6,15.6,6.5
			c-1.1,2.3-2.1,4.8-2.9,7.3c0,0,0,0,0,0c-1.3,3.8-2.2,7.8-2.7,11.9c0,0.1,0,0.2,0,0.3c0,0.1,0,0.3,0,0.4c-0.1,0.5-0.1,1.1-0.2,1.6
			c-0.2,2.1-0.3,4.2-0.3,6.4c0,1.9,0.1,3.9,0.3,5.9c1.2,14.6,6.6,31.1,14.9,45.5L214.9,439.2z"></path>
	</g>
	<g id="cabeça">
		<path id="rosto" class="st11" d="M385.2,201.4v19c0,2.1,0,4.1-0.1,6.2c0,0.7-0.1,1.4-0.1,2.1c0,0.7-0.1,1.4-0.1,2
			c-0.1,0.7-0.1,1.4-0.2,2c-0.2,2.7-0.6,5.4-0.9,8.1c-0.2,1.3-0.4,2.7-0.6,4c-0.1,0.7-0.2,1.3-0.4,2c-0.2,1.2-0.5,2.5-0.8,3.7
			c0,0.1,0,0.3-0.1,0.4c-0.1,0.6-0.3,1.1-0.4,1.7c-0.1,0.6-0.3,1.1-0.4,1.7c-0.1,0.6-0.3,1.1-0.4,1.7c-0.6,2.3-1.3,4.5-2,6.7
			c-0.3,0.8-0.5,1.7-0.8,2.5c-0.2,0.7-0.5,1.4-0.7,2c-0.1,0.3-0.2,0.6-0.3,0.8c-0.6,1.5-1.1,3-1.7,4.5c-0.2,0.5-0.4,1.1-0.7,1.6
			c-0.2,0.5-0.4,1.1-0.7,1.6v0h0c-2.5,5.7-5.3,11.2-8.5,16.4c0,0,0,0,0,0c-1.1,1.8-2.2,3.5-3.3,5.2c-5.8,8.7-12.6,16.7-20.2,23.9
			c-2.5,2.4-5.2,4.7-7.9,6.9c-0.6,0.5-1.2,1-1.9,1.5c-0.1,0.1-0.2,0.1-0.3,0.2c-0.7,0.5-1.3,1-2,1.5c-1.4,1.1-2.8,2.1-4.3,3.1
			c-0.7,0.5-1.4,1-2.2,1.5c-0.8,0.6-1.7,1.1-2.6,1.7c-1,0.6-2,1.2-3,1.8c-0.7,0.4-1.4,0.9-2.2,1.3c-0.6,0.3-1.1,0.6-1.7,1
			c-0.6,0.4-1.3,0.7-1.9,1c-0.6,0.4-1.3,0.7-2,1c-0.9,0.5-1.8,0.9-2.8,1.4c-5.5,2.7-11.3,5.1-17.2,7c-5,1.7-10.1,3-15.3,4.1
			c-2.6,0.5-5.1,1-7.8,1.4c-0.6,0.1-1.3,0.2-1.9,0.3c-0.7,0.1-1.4,0.2-2,0.3c-0.6,0.1-1.2,0.2-1.9,0.2c-0.7,0.1-1.4,0.2-2,0.2
			c-0.9,0.1-1.8,0.2-2.6,0.2h-0.1c-0.3,0-0.6,0-0.9,0.1c-2.2,0.2-4.3,0.3-6.5,0.3c-0.9,0-1.8,0-2.7,0c-1.6,0-3.2,0-4.9-0.1
			c-1,0-1.9-0.1-2.9-0.1c-1.7-0.1-3.4-0.2-5.1-0.4c-0.4,0-0.8-0.1-1.1-0.1c0,0,0,0,0,0c-0.5,0-1-0.1-1.5-0.2h0
			c-0.9-0.1-1.7-0.2-2.6-0.3c0,0-0.1,0-0.1,0c-0.1,0-0.3,0-0.4,0c0,0,0,0-0.1,0c-0.1,0-0.2,0-0.3,0c-0.2,0-0.5-0.1-0.7-0.1
			c-0.1,0-0.1,0-0.2,0c-0.3,0-0.5-0.1-0.8-0.1c-2.6-0.4-5.2-0.9-7.7-1.4c-5.2-1.1-10.3-2.4-15.3-4.1c-0.5-0.2-1.1-0.3-1.6-0.5
			c-5.4-1.8-10.6-4-15.6-6.5c-0.6-0.3-1.3-0.6-1.9-1c-5.7-2.8-11.1-6.1-16.2-9.7c-5.8-4-11.2-8.4-16.3-13.3
			c-13.5-12.8-24.5-28.2-32-45.5c-0.5-1.1-0.9-2.1-1.3-3.2c-1.3-3.2-2.5-6.5-3.6-9.8c-0.7-2.2-1.4-4.5-2-6.7
			c-0.3-1.1-0.6-2.3-0.9-3.4c-2.5-10.3-3.8-21.1-3.8-32.2v-19H385.2z"></path>
		<path id="orelha_x5F_esquerda" class="st11" d="M119.1,275.8c-2.6,0.6-5.2,1-8,1h-0.1c-19.1,0-34.7-15.5-34.7-34.7
			c0-15.1,9.7-27.9,23.1-32.7c2.6-0.9,5.4-1.6,8.2-1.8v12.8C107.6,240.1,111.7,258.8,119.1,275.8z"></path>
		<path id="orelha_x5F_direita" class="st11" d="M416.5,242.1c0,19.1-15.5,34.7-34.7,34.7h-0.1c-2.8,0-5.4-0.3-8-1
			c7.4-17,11.5-35.7,11.5-55.4v-12.8c2.8,0.3,5.6,0.9,8.2,1.8C406.9,214.1,416.5,227,416.5,242.1z"></path>
		<g id="sombra_x5F_orelhas" class="st12">
			<path id="sombra_x5F_esq_1_" class="st13" d="M107.6,207.6c-2.8,0.3-5.6,0.9-8.2,1.8v9.8c0,20.4,4.2,39.9,11.7,57.5
				c2.8,0,5.4-0.3,8-1c-7.4-17-11.5-35.7-11.5-55.4V207.6z"></path>
			<path id="sombra_x5F_dir_1_" class="st13" d="M385.2,207.6v12.8c0,19.7-4.1,38.4-11.5,55.4c2.6,0.6,5.2,1,8,1
				c7.5-17.7,11.7-37.1,11.7-57.5v-9.8C390.8,208.5,388.1,207.8,385.2,207.6z"></path>
		</g>
		<circle id="bochecha_x5F_dir" class="st14" cx="329.5" cy="311" r="11.8"></circle>
		<circle id="bochecha_x5F_esq" class="st14" cx="163.3" cy="311" r="11.8"></circle>
		<circle id="olho_x5F_dir" class="st15" cx="337.8" cy="258.8" r="6"></circle>
		<circle id="olho_x5F_esq" class="st15" cx="155" cy="258.8" r="6"></circle>
		<path id="boca" class="st15" d="M236,306.7c0,5.8,4.7,10.4,10.4,10.4c5.7,0,10.3-4.5,10.4-10.2c0-0.1,0-0.2,0-0.2
			c0-0.1,0-0.2,0-0.2c-0.1-1-0.9-1.7-2-1.7c-1.1,0-2,0.9-2,2h0c0,3.6-2.9,6.5-6.5,6.5c-3.6,0-6.5-2.9-6.5-6.5c0-1.1-0.9-2-2-2
			C236.8,304.7,236,305.6,236,306.7z"></path>
		<path id="sombra_x5F_rosto" class="st7" d="M256.5,358.8c-0.3,0-0.6,0-0.9,0.1c-2.2,0.2-4.3,0.3-6.5,0.3c-0.9,0-1.8,0-2.7,0
			c-1.6,0-3.2,0-4.9-0.1c-1,0-1.9-0.1-2.9-0.1c-1.7-0.1-3.4-0.2-5.1-0.4c-0.4,0-0.8-0.1-1.1-0.1c0,0,0,0,0,0c-0.5,0-1-0.1-1.5-0.2h0
			c-0.9-0.1-1.7-0.2-2.6-0.3c0,0-0.1,0-0.1,0c-0.1,0-0.3,0-0.4,0c0,0,0,0-0.1,0l-0.3,0c-0.2,0-0.5-0.1-0.7-0.1c-0.1,0-0.1,0-0.2,0
			c-0.3,0-0.5-0.1-0.8-0.1c-2.6-0.4-5.2-0.9-7.7-1.4c-5.2-1.1-10.3-2.4-15.3-4.1c-0.5-0.2-1.1-0.3-1.6-0.5c-5.4-1.8-10.6-4-15.6-6.5
			c-0.6-0.3-1.3-0.6-1.9-1c-5.7-2.8-11.1-6.1-16.2-9.7c-5.8-4-11.2-8.4-16.3-13.3c-13.5-12.8-24.5-28.2-32-45.5
			c-0.5-1.1-0.9-2.1-1.3-3.2c-1.3-3.2-2.5-6.5-3.6-9.8c-0.7-2.2-1.4-4.5-2-6.7c-0.3-1.1-0.6-2.3-0.9-3.4
			c-2.5-10.3-3.8-21.1-3.8-32.2v-19h20.3v19c0,19.7,4.1,38.4,11.5,55.4c10,23,26.1,42.8,46.2,57.3c0.7,0.5,1.4,1,2.2,1.5
			c5.5,3.8,11.2,7.2,17.2,10.2c0.3,0.1,0.5,0.3,0.8,0.4c5.1,2.5,10.4,4.7,15.8,6.5c7.9,2.7,16.1,4.8,24.6,6
			C249.5,358.2,253,358.6,256.5,358.8z"></path>
		<path id="sombra_x5F_cabeca" class="st0" d="M428.9,242c0-0.1,0-0.3,0-0.4c0-0.9,0-1.7-0.1-2.6c0-0.5-0.1-1-0.1-1.6
			c0-0.2-0.1-0.4-0.1-0.6c-0.1-0.6-0.1-1.2-0.2-1.8c-0.1-0.6-0.2-1.2-0.3-1.8c-0.1-0.5-0.2-1.1-0.3-1.6c-0.1-0.4-0.2-0.8-0.3-1.1
			c-0.1-0.6-0.3-1.1-0.4-1.6c0-0.2-0.1-0.3-0.1-0.5c-0.1-0.3-0.2-0.6-0.3-0.8c-0.3-1-0.7-2-1.1-3c-0.2-0.5-0.4-0.9-0.6-1.4
			c-0.2-0.4-0.4-0.8-0.6-1.2c-0.2-0.4-0.3-0.7-0.5-1.1c-0.2-0.4-0.4-0.7-0.5-1.1c-0.3-0.5-0.5-0.9-0.8-1.4c0,0,0-0.1,0-0.1
			c-0.2-0.3-0.4-0.6-0.6-1c0-0.1-0.1-0.1-0.1-0.2c-0.1-0.1-0.1-0.3-0.2-0.4c-0.1-0.1-0.1-0.1-0.2-0.2c-0.2-0.3-0.3-0.5-0.5-0.7
			c-0.1-0.1-0.2-0.2-0.3-0.4c-0.1-0.1-0.1-0.2-0.2-0.3c-0.2-0.3-0.4-0.6-0.6-0.9c0,0,0,0,0,0c-0.2-0.2-0.3-0.5-0.5-0.7
			c-0.2-0.3-0.4-0.6-0.6-0.8c0-0.1-0.1-0.1-0.1-0.2c-0.4-0.5-0.7-0.9-1.1-1.3c0,0,0-0.1-0.1-0.1c-0.5-0.6-1-1.1-1.5-1.6
			c-0.1-0.1-0.2-0.2-0.3-0.3c-0.5-0.5-0.9-0.9-1.4-1.4c-0.2-0.2-0.3-0.3-0.5-0.5c-0.4-0.4-0.8-0.8-1.3-1.1c-0.1,0-0.1-0.1-0.2-0.2
			c-0.6-0.5-1.1-0.9-1.7-1.4c-0.4-0.3-0.9-0.7-1.3-1c-0.4-0.3-0.9-0.6-1.3-0.9c0,0,0,0,0,0c-0.4-0.3-0.9-0.6-1.3-0.8
			c0,0-0.1,0-0.1-0.1c-0.3-0.2-0.6-0.4-1-0.6c-0.3-0.2-0.7-0.4-1-0.6c-0.4-0.2-0.7-0.4-1.1-0.6c-0.4-0.2-0.7-0.4-1.1-0.6
			c-0.5-0.2-1-0.5-1.5-0.7c-0.6-0.3-1.1-0.5-1.7-0.7v0v-77c0-5,0.7-10,2.1-14.8c1.1-3.9,2.8-7.7,4.8-11.3l7.3-12.6l4.1-7.1
			l-6.8-11.8l-10.9,18.9h0l-7.3,12.6c-1.2,2-2.2,4.1-3.1,6.2c-0.4,1.1-0.8,2.1-1.2,3.2c-0.2,0.6-0.4,1.2-0.6,1.9
			c-0.3,1-0.6,2-0.8,3.1c-0.9,3.9-1.3,7.8-1.3,11.7v86.3c0.4,0,0.8,0.1,1.2,0.1c2.4,0.3,4.7,0.9,7,1.7c1.9,0.7,3.7,1.5,5.5,2.5
			c10.5,5.9,17.6,17.2,17.6,30.2c0,17.2-12.5,31.5-29,34.2c-1.8,0.3-3.7,0.5-5.7,0.5h-0.1c-2.1,0-4.2-0.2-6.3-0.6
			c-0.6-0.1-1.2-0.2-1.7-0.4c-0.5,1.2-1,2.4-1.6,3.5c-0.3,0.8-0.7,1.5-1.1,2.3c-0.9,1.8-1.8,3.6-2.8,5.3c-0.1,0.1-0.1,0.3-0.2,0.4
			c-0.1,0.1-0.1,0.3-0.2,0.4c-0.1,0.2-0.2,0.3-0.3,0.5c-0.3,0.5-0.6,1.1-0.9,1.6c-1.5,2.7-3.2,5.3-4.9,7.8c-0.7,1.1-1.5,2.2-2.2,3.2
			c-0.8,1.1-1.5,2.1-2.3,3.2c-0.4,0.5-0.8,1-1.2,1.6c-1.2,1.6-2.4,3.1-3.7,4.6c-0.9,1-1.7,2-2.6,3c-1.3,1.4-2.6,2.9-4,4.2
			c0,0-0.1,0.1-0.1,0.1c-2.1,2.2-4.3,4.3-6.5,6.3c-0.8,0.7-1.6,1.4-2.4,2.1c-0.8,0.7-1.6,1.4-2.5,2.1c-1.6,1.3-3.2,2.6-4.9,3.8
			c-1,0.8-2,1.5-3,2.2c-0.4,0.3-0.7,0.5-1.1,0.8c-0.7,0.5-1.4,1-2.2,1.5c-0.8,0.5-1.6,1.1-2.4,1.6c-0.9,0.6-1.7,1.1-2.6,1.6
			c-3.5,2.1-7.1,4.1-10.8,5.9v0c-12.5,6.1-26,10.4-40.2,12.5c-0.6,0.1-1.3,0.2-1.9,0.3c-0.7,0.1-1.4,0.2-2,0.3
			c-0.6,0.1-1.2,0.2-1.9,0.2c-0.7,0.1-1.4,0.2-2,0.2c-0.9,0.1-1.8,0.2-2.6,0.2h-0.1c-0.3,0-0.6,0-0.9,0.1c-0.8,0.1-1.7,0.1-2.5,0.2
			c-0.5,0-0.9,0-1.4,0.1c-0.3,0-0.7,0-1,0c-0.5,0-1.1,0-1.6,0c-0.9,0-1.8,0-2.7,0c-0.9,0-1.7,0-2.6,0c-0.8,0-1.5,0-2.3-0.1
			c-2.7-0.1-5.3-0.2-7.9-0.5c-0.4,0-0.8-0.1-1.1-0.1c-0.1,0-0.3,0-0.4,0c-0.4,0-0.8-0.1-1.2-0.1h0c-0.2,0-0.4,0-0.6-0.1
			c-0.3,0-0.6-0.1-0.9-0.1c-0.3,0-0.7-0.1-1-0.1c0,0-0.1,0-0.1,0c-0.1,0-0.3,0-0.4,0c0,0,0,0-0.1,0c-0.1,0-0.2,0-0.3,0
			c-0.1,0-0.3,0-0.4-0.1c-0.2,0-0.3,0-0.5-0.1c-0.3,0-0.5-0.1-0.8-0.1c-1.8-0.3-3.6-0.6-5.3-0.9c-1.7-0.3-3.5-0.7-5.2-1.1
			c0,0,0,0-0.1,0c-0.9-0.2-1.7-0.4-2.5-0.6c-1.7-0.4-3.3-0.9-5-1.3c-0.1,0-0.1,0-0.2-0.1c-0.8-0.2-1.6-0.5-2.5-0.7
			c-2.5-0.8-5-1.6-7.5-2.6c-0.8-0.3-1.6-0.6-2.5-0.9c-3.2-1.3-6.4-2.7-9.5-4.2v0c-3.7-1.8-7.3-3.8-10.8-5.9
			c-0.9-0.5-1.7-1.1-2.6-1.6c-0.8-0.5-1.6-1-2.4-1.6c-0.7-0.5-1.5-1-2.2-1.5c-0.4-0.3-0.7-0.5-1.1-0.8c-1-0.7-2-1.4-3-2.2
			c-1.7-1.2-3.3-2.5-4.9-3.8c-0.8-0.7-1.7-1.4-2.5-2.1c-0.8-0.7-1.6-1.4-2.4-2.1c-2.3-2-4.4-4.1-6.5-6.3c0,0-0.1-0.1-0.1-0.1
			c-1.4-1.4-2.7-2.8-4-4.2c-0.9-1-1.7-2-2.6-3c-1.3-1.5-2.5-3-3.7-4.6c-0.4-0.5-0.8-1-1.2-1.6c-0.8-1-1.6-2.1-2.3-3.2
			c-0.8-1.1-1.5-2.1-2.2-3.2c-1.7-2.6-3.3-5.2-4.9-7.8c-0.3-0.5-0.6-1.1-0.9-1.6c-0.1-0.2-0.2-0.3-0.3-0.5c-0.1-0.1-0.1-0.3-0.2-0.4
			c-0.1-0.1-0.1-0.3-0.2-0.4c-1-1.7-1.9-3.5-2.8-5.3c-0.4-0.7-0.7-1.5-1.1-2.3c-0.6-1.2-1.1-2.3-1.6-3.5c-0.6,0.1-1.1,0.3-1.7,0.4
			c-2,0.4-4.1,0.6-6.3,0.6h-0.1c-1.9,0-3.8-0.2-5.7-0.5c-16.5-2.7-29-17-29-34.2c0-13,7.1-24.3,17.6-30.2c1.7-1,3.6-1.8,5.5-2.5
			c2.2-0.8,4.6-1.4,7-1.7c0.4-0.1,0.8-0.1,1.2-0.1v-86.3c0-3.9-0.4-7.9-1.3-11.7c-0.2-1-0.5-2-0.8-3.1c-0.2-0.6-0.4-1.3-0.6-1.9
			c-0.4-1.1-0.8-2.1-1.2-3.2c-0.9-2.1-1.9-4.2-3.1-6.2l-7.3-12.6h0L82.4,63.7l-6.8,11.8l4.1,7.1l7.3,12.6c2.1,3.6,3.7,7.4,4.8,11.3
			c1.4,4.8,2.1,9.8,2.1,14.8v77v0c-0.6,0.2-1.2,0.5-1.7,0.7c-0.5,0.2-1,0.4-1.5,0.7c-0.4,0.2-0.8,0.4-1.1,0.6
			c-0.4,0.2-0.7,0.4-1.1,0.6c-0.3,0.2-0.7,0.4-1,0.6c-0.3,0.2-0.7,0.4-1,0.6c0,0-0.1,0-0.1,0.1c-0.4,0.3-0.9,0.6-1.3,0.8
			c0,0,0,0,0,0c-0.4,0.3-0.9,0.6-1.3,0.9c-0.4,0.3-0.9,0.6-1.3,1c-0.6,0.4-1.1,0.9-1.7,1.4c-0.1,0-0.1,0.1-0.2,0.2
			c-0.4,0.4-0.9,0.8-1.3,1.1c-0.2,0.2-0.3,0.3-0.5,0.5c-0.5,0.5-0.9,0.9-1.4,1.4c-0.1,0.1-0.2,0.2-0.3,0.3c-0.5,0.5-1,1-1.5,1.6
			c0,0,0,0-0.1,0.1c-0.4,0.4-0.8,0.9-1.1,1.3c0,0-0.1,0.1-0.1,0.2c-0.2,0.3-0.4,0.5-0.6,0.8c-0.2,0.2-0.4,0.5-0.5,0.7c0,0,0,0,0,0
			c-0.2,0.3-0.4,0.6-0.6,0.9c-0.1,0.1-0.2,0.2-0.2,0.3c-0.1,0.1-0.2,0.2-0.3,0.4c-0.2,0.3-0.3,0.5-0.5,0.7c0,0.1-0.1,0.2-0.2,0.2
			c-0.1,0.1-0.2,0.2-0.2,0.4c0,0.1-0.1,0.1-0.1,0.2c-0.2,0.3-0.4,0.6-0.6,1c0,0,0,0,0,0.1c-0.3,0.5-0.5,0.9-0.8,1.4
			c-0.2,0.3-0.4,0.7-0.5,1.1c-0.2,0.3-0.3,0.7-0.5,1.1c-0.2,0.4-0.4,0.8-0.6,1.2c-0.2,0.5-0.4,0.9-0.6,1.4c-0.4,1-0.8,2-1.1,3
			c-0.1,0.3-0.2,0.6-0.3,0.8c0,0.2-0.1,0.3-0.1,0.5c-0.2,0.5-0.3,1.1-0.4,1.6c-0.1,0.4-0.2,0.8-0.3,1.1c-0.1,0.5-0.2,1-0.3,1.6
			c-0.1,0.6-0.2,1.2-0.3,1.8c-0.1,0.6-0.2,1.2-0.2,1.8c0,0.2-0.1,0.4-0.1,0.6c0,0.5-0.1,1-0.1,1.6c0,0.9-0.1,1.7-0.1,2.6
			c0,0.1,0,0.2,0,0.4c0,0,0,0.1,0,0.1c0,0,0,0.1,0,0.1v0c0,0.1,0,0.2,0,0.3c0,0.9,0,1.7,0.1,2.6c0,0.5,0.1,1,0.1,1.6
			c0,0.2,0.1,0.4,0.1,0.6c0.1,1.1,0.3,2.3,0.5,3.4c0.2,1.1,0.5,2.2,0.7,3.3c0.2,0.6,0.3,1.2,0.5,1.7c0.1,0.3,0.2,0.6,0.3,0.9
			c0.1,0.3,0.2,0.6,0.3,1c0,0,0,0,0,0.1c0.4,1.2,0.9,2.3,1.4,3.5c0.4,1,0.9,1.9,1.4,2.8c0,0,0,0,0,0c0.5,1,1.1,2,1.7,2.9
			c0.3,0.5,0.6,1,0.9,1.4c0.3,0.5,0.6,0.9,1,1.4c0.3,0.4,0.6,0.8,0.9,1.2c0.6,0.7,1.1,1.4,1.7,2.1c0.3,0.3,0.6,0.7,0.9,1
			c0.4,0.4,0.7,0.8,1.1,1.1c0.1,0.1,0.3,0.3,0.4,0.4c0.3,0.3,0.6,0.6,0.9,0.9c0,0.1,0.1,0.1,0.2,0.2c0.4,0.3,0.7,0.7,1.1,1
			c0.1,0.1,0.2,0.1,0.3,0.2c0.4,0.3,0.8,0.7,1.2,1c0.4,0.3,0.8,0.6,1.2,0.9c0.1,0.1,0.2,0.2,0.3,0.3c0.4,0.3,0.8,0.6,1.3,0.9
			c0.4,0.3,0.8,0.6,1.3,0.8c0.1,0.1,0.3,0.2,0.4,0.3c0.3,0.2,0.6,0.4,0.9,0.6c0.7,0.4,1.4,0.8,2.1,1.1c0.4,0.2,0.9,0.4,1.3,0.6
			c0.1,0,0.1,0.1,0.2,0.1c0.3,0.2,0.7,0.3,1,0.5c0.2,0.1,0.5,0.2,0.7,0.3c0.5,0.2,1,0.4,1.4,0.6c0.5,0.2,1,0.4,1.5,0.5
			c0.1,0,0.2,0.1,0.3,0.1c0.5,0.2,1,0.3,1.5,0.5c0.1,0,0.1,0,0.2,0.1c0.5,0.2,1,0.3,1.5,0.4c0.1,0,0.1,0,0.2,0.1
			c0.6,0.1,1.2,0.3,1.7,0.4c1.8,0.4,3.6,0.7,5.5,0.9v0c0.7,0.1,1.5,0.1,2.3,0.2c0.8,0,1.5,0.1,2.3,0.1h0.3c1.5,2.9,3.1,5.7,4.8,8.5
			c5.2,8.5,11.2,16.5,17.9,23.9c8.3,9,17.6,17.1,27.8,23.9c5.7,3.8,11.6,7.2,17.8,10.2c2,1,4,1.9,6,2.8v0c2.4,1.1,4.9,2.1,7.4,3
			c9.8,3.7,20.1,6.4,30.8,8c0.6,0.1,1.2,0.2,1.8,0.2c0.1,0,0.3,0,0.4,0.1c0.1,0,0.3,0,0.4,0.1c0.5,0.1,0.9,0.1,1.4,0.2
			c1.5,0.2,3.1,0.4,4.6,0.5c1.1,0.1,2.1,0.2,3.2,0.3c3.6,0.3,7.2,0.4,10.9,0.4c3.4,0,6.8-0.1,10.1-0.3c0.2,0,0.5,0,0.7-0.1
			c0.1,0,0.1,0,0.2,0h0.1c1-0.1,1.9-0.1,2.9-0.2c1.5-0.1,3.1-0.3,4.6-0.5c0.6-0.1,1.3-0.2,1.9-0.2c0.7-0.1,1.4-0.2,2.1-0.3
			c10.7-1.6,21-4.3,30.8-7.9c2.5-0.9,5-1.9,7.4-3c0,0,0,0,0,0v0c2-0.9,4-1.8,6-2.7c6.2-3,12.1-6.4,17.8-10.2
			c10.2-6.8,19.6-14.9,27.8-23.9c6.7-7.3,12.7-15.3,17.9-23.9c1.7-2.8,3.3-5.6,4.8-8.5h0.3c0.8,0,1.5,0,2.3-0.1
			c0.8,0,1.5-0.1,2.3-0.2v0c1.9-0.2,3.7-0.5,5.5-0.9c0.6-0.1,1.2-0.3,1.7-0.4c0.1,0,0.1,0,0.2-0.1c0.5-0.1,1-0.3,1.5-0.4
			c0.1,0,0.1,0,0.2-0.1c0.5-0.1,1-0.3,1.5-0.5c0.1,0,0.2,0,0.3-0.1c0.5-0.2,1-0.3,1.5-0.5c0.5-0.2,1-0.4,1.4-0.6
			c0.2-0.1,0.5-0.2,0.7-0.3c0.3-0.1,0.7-0.3,1-0.5c0.1,0,0.1,0,0.2-0.1c0.4-0.2,0.9-0.4,1.3-0.6c0.7-0.4,1.4-0.7,2.1-1.1
			c0.3-0.2,0.6-0.4,0.9-0.6c0.1-0.1,0.3-0.2,0.4-0.3c0.4-0.3,0.9-0.5,1.3-0.8c0.4-0.3,0.9-0.6,1.3-0.9c0.1-0.1,0.2-0.2,0.3-0.3
			c0.4-0.3,0.8-0.6,1.2-0.9c0.4-0.3,0.8-0.6,1.2-1c0.1-0.1,0.2-0.2,0.3-0.2c0.4-0.3,0.7-0.6,1.1-1c0.1,0,0.1-0.1,0.2-0.2
			c0.3-0.3,0.6-0.6,0.9-0.9c0.1-0.1,0.3-0.3,0.4-0.4c0.4-0.4,0.7-0.8,1.1-1.1c0.3-0.3,0.6-0.7,0.9-1c0.6-0.7,1.2-1.4,1.7-2.1
			c0.3-0.4,0.6-0.8,0.9-1.2c0.3-0.5,0.7-0.9,1-1.4c0.3-0.5,0.6-0.9,0.9-1.4c0.6-0.9,1.2-1.9,1.7-2.9c0,0,0,0,0,0
			c0.5-0.9,0.9-1.9,1.4-2.8c0.5-1.1,1-2.3,1.4-3.5c0,0,0,0,0-0.1c0.1-0.3,0.2-0.6,0.3-1c0.1-0.3,0.2-0.6,0.3-0.9
			c0.2-0.6,0.3-1.1,0.5-1.7c0.3-1.1,0.5-2.2,0.7-3.3c0.2-1.1,0.4-2.2,0.5-3.4c0-0.2,0.1-0.4,0.1-0.6c0-0.5,0.1-1,0.1-1.6
			c0-0.9,0.1-1.7,0.1-2.6c0-0.1,0-0.2,0-0.3v0C428.9,242.2,428.9,242.2,428.9,242C428.9,242.1,428.9,242.1,428.9,242z M307.2,358.3
			L307.2,358.3L307.2,358.3C307.2,358.3,307.2,358.3,307.2,358.3z"></path>
	</g>
	<g id="barba">
		<path id="barba_1_" class="st16" d="M256.5,358.8L256.5,358.8c-0.4,0-0.6,0-0.9,0.1c-0.5,0-0.9,0.1-1.4,0.1
			c-0.8,0-1.6,0.1-2.4,0.1h0c-0.3,0-0.7,0-1,0c-0.5,0-1.1,0-1.6,0c-0.9,0-1.8,0-2.7,0c-0.8,0-1.6,0-2.4,0h-0.2c-0.8,0-1.5,0-2.3-0.1
			c-0.9,0-1.9-0.1-2.8-0.1h-0.1c-0.2,0-0.4,0-0.5,0c-0.4,0-0.9-0.1-1.3-0.1c-0.5,0-1.1-0.1-1.6-0.1c-0.5,0-0.9,0-1.4-0.1l1.9,11.9
			l3.5,21.4h4.7h5.1h4.7l3.5-21.4l1.9-11.9C258.2,358.7,257.3,358.7,256.5,358.8z"></path>
		<path id="sombra_x5F_esq_3_" class="st17" d="M243.8,391.9h-4.7l-3.5-21.4l-1.9-11.9c0.5,0.1,0.9,0.1,1.4,0.1
			c0.5,0.1,1,0.1,1.6,0.1c0.4,0,0.8,0.1,1.3,0.1c0.2,0,0.4,0,0.5,0l1.9,11.8L243.8,391.9z"></path>
		<path id="sombra_x5F_dir_3_" class="st17" d="M259,358.6l-1.9,11.9l-3.5,21.4h-4.7l3.4-21.1l1.9-11.8c0.5,0,0.9-0.1,1.4-0.1
			c0.3,0,0.6,0,0.9-0.1h0.1C257.3,358.7,258.2,358.7,259,358.6z"></path>
	</g>
</g>
</svg>
